<svg version="1.2" xmlns="http://www.w3.org/2000/svg" viewBox="0 0 175 70" width="175" height="70">
	<title>logo-svg</title>
	<style>
		.s0 { fill: #2c363f } 
		.s1 { fill: #e75a7c;stroke: #2c363f;stroke-linejoin: round;stroke-width: .4;stroke-dasharray: 0,0 } 
	</style>
	<g id="Layer 1">
		<path id="STEELOAK" class="s0" d="m17.8 19.5q-0.3 0.4-0.9 0.4-0.6 0-1-0.4-0.4-0.4-0.4-1 0-1.1-0.8-1.9-0.8-0.9-2-0.9h-5.4q-1.2 0-2 0.9-0.8 0.8-0.8 1.9v1.4q0 1.1 0.8 1.9 0.8 0.8 2 0.8h5.4q2.3 0 3.9 1.6 1.6 1.6 1.6 3.9v1.4q0 2.3-1.6 3.9-1.6 1.6-3.9 1.6h-5.5q-2.2 0-3.8-1.6-1.7-1.6-1.7-3.9 0-0.6 0.4-1 0.4-0.4 1-0.4 0.6 0 1 0.4 0.4 0.4 0.4 1 0 1.1 0.8 2 0.8 0.8 1.9 0.8h5.5q1.2 0 2-0.8 0.8-0.9 0.8-2v-1.4q0-1.1-0.8-1.9-0.8-0.8-2-0.8h-5.5q-2.2 0-3.8-1.6-1.6-1.6-1.6-3.9v-1.4q0-2.3 1.6-3.9 1.6-1.6 3.9-1.6h5.4q2.3 0 3.9 1.6 1.6 1.6 1.6 3.9 0 0.6-0.4 1zm21.1-3.8h-5.5v17.9q0 0.6-0.4 1-0.4 0.4-1 0.4-0.6 0-1-0.4-0.4-0.4-0.4-1v-17.8h-5.5q-0.6 0-1-0.4-0.4-0.4-0.4-1 0-0.6 0.4-1 0.4-0.4 1-0.4h13.8q0.5 0 0.9 0.4 0.4 0.4 0.4 1 0 0.6-0.4 1-0.3 0.4-0.9 0.4zm22 0h-11.7q-0.3 0-0.5 0.2-0.2 0.2-0.2 0.4v5.5q0 0.3 0.2 0.5 0.2 0.2 0.5 0.2h8.9q0.6 0 1 0.4 0.4 0.4 0.4 1 0 0.6-0.4 1-0.4 0.4-1 0.4h-8.9q-0.3 0-0.5 0.2-0.2 0.2-0.2 0.5v5.5q0 0.2 0.2 0.5 0.2 0.2 0.5 0.2h11.7q0.5 0 0.9 0.4 0.4 0.4 0.4 0.9 0 0.6-0.4 1-0.4 0.4-0.9 0.4h-13.8q-0.6 0-1-0.4-0.4-0.4-0.4-1v-19.2q0-0.6 0.4-1 0.4-0.4 1-0.4h13.8q0.5 0 0.9 0.4 0.4 0.4 0.4 1 0 0.6-0.4 1-0.4 0.4-0.9 0.4zm22 0h-11.7q-0.3 0-0.5 0.2-0.2 0.2-0.2 0.4v5.5q0 0.3 0.2 0.5 0.2 0.2 0.5 0.2h8.9q0.6 0 1 0.4 0.4 0.4 0.4 1 0 0.6-0.4 1-0.4 0.4-1 0.4h-8.9q-0.3 0-0.5 0.2-0.2 0.2-0.2 0.5v5.5q0 0.2 0.2 0.5 0.2 0.2 0.5 0.2h11.7q0.5 0 0.9 0.4 0.4 0.4 0.4 0.9 0 0.6-0.4 1-0.4 0.4-0.9 0.4h-13.8q-0.6 0-1-0.4-0.4-0.4-0.4-1v-19.2q0-0.6 0.4-1 0.4-0.4 1-0.4h13.8q0.5 0 0.9 0.4 0.4 0.4 0.4 1 0 0.6-0.4 1-0.4 0.4-0.9 0.4zm22 19.2h-13.8q-0.5 0-0.9-0.4-0.5-0.4-0.5-1v-19.2q0-0.6 0.5-1 0.4-0.4 0.9-0.4 0.6 0 1 0.4 0.4 0.4 0.4 1v17.2q0 0.2 0.2 0.5 0.2 0.2 0.5 0.2h11.7q0.6 0 0.9 0.4 0.4 0.4 0.4 0.9 0 0.6-0.4 1-0.3 0.4-0.9 0.4zm17.8 0h-5.5q-2.2 0-3.8-1.6-1.7-1.6-1.7-3.9v-11q0-2.3 1.7-3.9 1.6-1.6 3.8-1.6h5.5q2.3 0 3.9 1.6 1.6 1.6 1.6 3.9v11q0 2.3-1.6 3.9-1.6 1.6-3.9 1.6zm2.8-5.5v-11q0-1.1-0.8-1.9-0.8-0.8-2-0.8h-5.5q-1.1 0-1.9 0.8-0.8 0.8-0.8 1.9v11q0 1.1 0.8 2 0.8 0.8 1.9 0.8h5.5q1.2 0 2-0.8 0.8-0.9 0.8-2zm24.3 5.1q-0.4 0.4-0.9 0.4-0.6 0-1-0.4-0.4-0.4-0.4-1v-6.2q0-0.2-0.2-0.4-0.2-0.2-0.5-0.2h-9.6q-0.3 0-0.5 0.2-0.2 0.2-0.2 0.4v6.2q0 0.6-0.4 1-0.4 0.4-1 0.4-0.5 0-0.9-0.4-0.5-0.4-0.5-1v-15.1q0-2.3 1.7-3.9 1.6-1.6 3.8-1.6h5.5q2.3 0 3.9 1.6 1.6 1.6 1.6 3.9v15.1q0 0.6-0.4 1zm-2.3-11.3v-4.8q0-1.1-0.8-1.9-0.8-0.8-2-0.8h-5.5q-1.1 0-1.9 0.8-0.8 0.8-0.8 1.9v4.8q0 0.3 0.2 0.5 0.2 0.2 0.5 0.2h9.6q0.3 0 0.5-0.2 0.2-0.2 0.2-0.5zm24.7-8.9v5.5q0 1.2-0.4 2.3-0.5 1-1.4 1.8 0.9 0.8 1.4 1.8 0.4 1.1 0.4 2.3v5.5q0 0.6-0.4 1-0.3 0.4-0.9 0.4-0.6 0-1-0.4-0.4-0.4-0.4-1v-5.5q0-1.1-0.8-1.9-0.8-0.8-2-0.8h-8.2v8.2q0 0.6-0.4 1-0.4 0.4-1 0.4-0.5 0-0.9-0.4-0.5-0.4-0.5-1v-19.2q0-0.6 0.5-1 0.4-0.4 0.9-0.4 0.6 0 1 0.4 0.4 0.4 0.4 1v8.2h8.2q1.2 0 2-0.8 0.8-0.8 0.8-1.9v-5.5q0-0.6 0.4-1 0.4-0.4 1-0.4 0.6 0 0.9 0.4 0.4 0.4 0.4 1z"/>
		<path id="Form 1" fill-rule="evenodd" class="s1" d="m4 38.2l136 8.4-16 19.2 48.1-28z"/>
	</g>
</svg>